<?xml version="1.0" encoding="UTF-8"?>
<svg version="1.1" id="Layer_1" xmlns="http://www.w3.org/2000/svg" xmlns:xlink="http://www.w3.org/1999/xlink" x="0px" y="0px" viewBox="0 0 2626.995 1571.261" enable-background="new 0 0 2626.995 1571.261" xml:space="preserve">
<g transform="matrix(1.0353 0 0 1.0353 -230.67 -382.44)">
	<g transform="translate(230.92 .81114)">
	</g>
	<g transform="translate(230.92 .81114)">
	</g>
	<g transform="translate(230.92 .81114)">
	</g>
	<g transform="translate(230.92 .81114)">
	</g>
	<g transform="translate(230.92 .81114)">
	</g>
	<g transform="translate(230.92 .81114)">
	</g>
	<g transform="translate(230.92 .81114)">
	</g>
	<g transform="translate(230.92 .81114)">
	</g>
	<g transform="translate(230.92 .81114)">
	</g>
	<g transform="translate(230.92 .81114)">
	</g>
	<g transform="translate(230.92 .81114)">
	</g>
	<g transform="translate(230.92 .81114)">
	</g>
	<g transform="translate(230.92 .81114)">
	</g>
	<g transform="translate(230.92 .81114)">
	</g>
	<g transform="translate(230.92 .81114)">
	</g>
	<g transform="translate(230.92 .81114)">
	</g>
	<g transform="translate(230.92 .81114)">
	</g>
	<g transform="translate(230.92 .81114)">
	</g>
	<g transform="translate(230.92 .81114)">
	</g>
</g>
<g>
</g>
<g>
</g>
<path d="M1930.827,544.781c-0.879-1.575-0.531-0.886-1.584-3.14c0.135-0.012,7.753-0.701,7.888-0.715  c0.915-4.607,0.676-3.418,1.095-5.466c0.307-0.146,0.364-0.223,0.687-0.497l0.358-0.588l-0.608-1.904  c0.277-1.916,0.249-2.446,0.331-4.594l-0.072-0.003l0.077-0.009c-0.126-1.924,4.645-9.082-3.897-12.951  c-0.728-0.763-0.572-0.646-1.329-1.035l-0.003,0.023c-0.546-0.179-0.365-0.133-0.834-0.215c-5.264-16.512-4.44-15.041-5.905-15.955  c-2.182-0.594-5.579,0.12-8.047,0.535l-0.396,0.22c-0.296,0.293-0.195,0.175-0.468,0.55c-0.026,1.842-0.492,3.037-1.071,4.346  l-0.198-0.167l-1.04-0.333c-9.171-28.029-7.978-24.355-8.312-26.395l0.013-0.093c0.474-0.308,0.397-0.25,0.633-0.488l0.059-0.157  l0.06-0.019l-0.024-0.076l0.016-0.041l-0.038-0.029l-0.315-0.986c0.723-1.581,0.045-0.167,2.207-3.95l-0.038-0.043l0.062-0.077  l0.241-0.968c-0.056-0.95,0.305,0.728-3.104-12.658l-0.316-0.557l-0.593-0.584l-0.962-0.358c-1.145-0.078-0.424-0.102-3.566,0.175  l-1.031-3.279c1.67-0.641,3.234-1.161,4.344-2.298l-0.024-0.074l0.14-0.045l-0.194-0.126l-0.289-0.907l1.016-0.326l1.128-1.867  c0.189-0.06,0.118-0.038,0.391-0.124l-0.227-0.149c0.067-0.111,0.06-0.099,0.087-0.139l-0.529-1.605l0.097-0.031l-0.136-0.089  l-0.019-0.06l-0.143-0.044l-0.269-0.175c-1.186-0.079-1.788-0.726-3.057-0.609c-0.041-0.128-0.031-0.098-0.059-0.183l-6.573-0.627  l2.071-6.82c-0.031-0.051-5.511-9.177-5.539-9.23l-0.289-0.11c-0.766,0.04-1.632,0.1-3.35,0.59c-0.2-0.635-2.525-8.036-6.007-19.443  l48.514-9.204c26.403-10.128,45.343-21.712,59.599-36.454c49.82-51.494,59.447-71.433,73.084-117.979  c1.924-6.544,3.88-13.304,2.584-19.819c0.169,0.064,0.513,0.194,0.669,0.252c0.015-0.034,1.24-2.884,1.254-2.918l-0.024-10.706  l4.037-5.329c33.35-18.255,31.92-17.258,38.529-19.962c2.727-3.964,1.823-2.878,4.007-4.946l2.404-1.146  c4.913,1.226,2.609,0.34,10.369,4.144l3.653,3.519l4.46,8.021c-0.75,14.875-0.064,9.247-3.012,24.677  c-2.902,11.677-1.671,8.315-5.634,15.697c-9.813,9.951-2.91,3.219-14.247,12.037l-3.817,9.932l-0.724,10.742l3.569,12.552  c6.572,9.962,2.481,3.876,9.117,13c0.052,0.014,4.299,1.129,4.35,1.143c0.097-0.031,4.291-1.381,4.388-1.411  c4.247-17.799-2.152-3.905,3.602-43.319c8.921-26.254,18.246-53.017,3.498-75.138l-6.996-2.048l10.356-5.502l0.546,6.819  c3.371,7.982,5.566,16.942,7.448,24.079c-2.165,53.559-30.584,78.914,12.007,142.8c0.037,0.005,2.06,0.276,2.097,0.283  c0.061-0.017,3.753-1.062,3.814-1.08c0.028-0.041,1.828-2.653,1.856-2.695c0.003-0.046,0.165-3.073,0.17-3.119  c-5.71-11.383-5.735-6.209-13.041-25.746c-3.253-8.161-7.293-15.387-5.938-41.05c8.078-33.311,7.343-16.396,14.456-49.051  c2.727-25.49,1.531-14.261-2.389-45.018c4.545-51.346,7.214-46.278,1.573-78.524l-0.185,0.068  c-3.388-12.408-1.943-7.532-4.799-16.292c-0.046-0.047-5.221-5.336-5.268-5.382c-14.735-1.288-8.538-1.03-20.719-0.477  c-0.05,0.033-6.501,4.294-6.552,4.326c-4.51,12.909-1.288,5.435-15.141,34.51l-7.666,9.892l-10.532,7.195  c-43.715,5.784-37.136-4.722-92.867-6.58c-0.105,0.084-3.824,3.056-3.93,3.139l0.228,0.574c-12.07-5.322-22.777-7.057-70.849-10.801  c-1.366-1.522-5.269-6.363-12.825-11.054c-0.016-0.076-1.532-7.376-1.546-7.453l-0.79-0.48l-0.015-0.064l-0.069,0.013l-0.188-0.113  l0.03,0.146l-7.675,1.606c-0.977-0.642-0.552-0.438-1.865-0.897c-2.131,0.098,0.084-0.116-8.61,1.6l2.776,13.419  c-0.744,0.12-1.475,0.272-2.196,0.456c-0.038-0.183-2.739-13.24-2.776-13.42l-12.037,2.494l-1.099,0.582l-0.802,1.202l-1.144,3.961  c-3.776,5.766-2.237,3.898-6.742,8.187c-7.201,2.474,7.655-0.872-111.708,23.845l-6.739-1.052c-0.056-0.174-2.304-7.227-2.36-7.399  c-0.173,0.055-50.077,15.984-50.25,16.038c23.284,72.969,18.265,56.149,34.304,112.288l12.255-3.911  c-0.083,0.027-11.97,3.892-12.052,3.919c-4.71,10.766-5.04,18.952,5.765,23.192c1.845,4.865,1.06,2.57,3.486,10.317  c-0.209,0.011-44.583,2.303-44.792,2.315l0.268,1.458c0.001,0,0.088,0.011,0.089,0.011l-0.016,0.147l-748.591,32.684  c-0.053-0.175-8.985-29.39-9.039-29.564c0,0,0.041-0.021-1.246,0.373c-0.012-0.04-0.025-0.079-0.037-0.119l2.291-0.74l-2.653-8.855  c-0.475,0.129-1.088,0.296-2.403,0.657c-51.3-165.903-42.231-148.932-56.468-162.262c-9.453-8.813-20.936-16.525-32.232-23.724  c3.055-0.909,6.273-1.311,15.415-9.657l0.259-3.575c60.653-6.453,55.5-14.945,86.413-27.975c9.967-3.285,3.984-2.267,29.369-4.211  c0.043,0.029,3.324,2.214,3.368,2.242l21.946,0.542l16.399-6.174c4.44,0.89,33.028,6.615,37.35,4.944  c3.139-1.219,14.035-12.798-3.623-24.012c-22.052-14.001-57.646-11.562-122.553-11.618c-178.794,3.105-119.08,0.693-224.753-2.495  c-15.649,0.364-65.49,0.201-74.518,13.03c-1.237,1.756-1.178,4.157-1.411,6.208c-0.219,2.008-0.882,4.285,0.012,6.167  c2.358,4.969,12.135,3.434,16.604,4.071c13.038,1.874,43.743,9.354,56.201,12.588l26.713,17.76L733.706,84  c3.568,3.719,7.366,6.419,14.338,11.73c18.562,6.772,17.069,5.349,54.13,1.91c0.019,0.068,1.104,3.895,1.123,3.963  c8.655,5.326,11.863,5.796,19.692,6.246c28.432,45.602,13.607,7.63,70.904,195.018c-0.48,0.149-0.984,0.303-1.44,0.446  c-10.863-5.195-13.802-1.473-11.585,9.121c1.323,6.326,6.518,13.249,15.203,1.254l8.49,27.768l-0.557,0.915  c-7.359,1.329-34.214,11.494-43.879,88.776c-1.312,10.484-16.705,31.721-23.011,39.651c-1.439-0.679-1.136-0.537-1.813-0.761  l-0.39,0.028l-7.45,7.397l-0.09-0.056l0.046,0.099c-0.086,0.085-0.077,0.076-0.107,0.106c0.003,0.273,0.082,6.726,0.086,7.113  c-0.12-0.018-6.21-0.942-6.33-0.961l-0.201,0.322c-0.518-0.247-0.298-0.165-1.042-0.383l-2.137,0.345  c-0.173-0.108-0.109-0.068-0.355-0.223l0.038,0.274l-0.154,0.025l-0.886,1.437l-0.089-0.056l0.023,0.164l-0.036,0.056l0.065,0.153  l0.038,0.272c0.718,1.004,0.586,1.857,1.519,2.764c-0.06,0.095-0.369,0.591-0.429,0.686c0.901,1.455,2.215,2.286,3.648,3.314  l-1.487,2.349c-0.806-0.283-0.231-0.076-2.784-1.014l-1.344-0.076l-0.985,0.369l-0.721,0.678c-6.186,10.934-5.115,9.374-6.17,11.718  c0.589,3.723,0.357,1.03,1.321,5.737l-0.274,1.671c-0.846,1.866,0.989-1.221-12.496,20.213l-0.034,0.005l-0.675,1.082l-1.42-0.9  l0.767-1.205l-1.184-1.096c-6.348-3.166-12.261-4.3-16.318-4.068c-2.713,0.988-1.734,0.538-4.293,1.974  c-0.025,0.04-3.988,6.423-4.013,6.462c-0.139,2.887-0.167,1.818,0.12,4.688l-0.549,0.896c-0.492,10.983-0.301,8.097-0.83,13.222  c-0.374,0.599-4,6.383-4.332,7.007l0.148,0.62c0.587,0.62,0.066,0.124,2.896,2.648c-0.618,4.106-0.243,2.149-1.727,8.822  C426.478,413.126,33.498,661.473,33.498,1036.491c0,282.012,229.434,511.447,511.447,511.447  c187.134,0,351.085-101.045,440.243-251.419c2.576-0.007,5.135,0.555,7.391,1.695c5.998,6.117,10.842-3.903,21.912,1.476  c7.309,4.259,10.621-4.126,21.119,0.966c1.943,1.921,5.016,2.61,7.548,1.441c9.216-4.68,15.323,1.061,18.733,1.061  c2.374,0,8.718-3.545,16.217,0.863c5.527,6.416,11.241-3.124,21.776,2.867c3.948,2.643,7.552,2.003,9.884-0.646  c3.445-0.973,7.22-0.763,10.421,0.661c1.904,1.78,4.79,2.284,7.098,1.126c9.821-5.38,14.719,2.625,20.056-0.226  c3.952-2.286,8.968-2.688,13.146-1.084c6.312,5.248,9.22-4.982,21.175-0.401c6.402,3.128,8.799-5.946,19.388-3.783  c7.004,4.075,8.606-6.157,20.02-4.043c9.151,2.46,7.363-7.57,19.116-8.107c8.107,2.462,6.166-8.239,19.925-8.804  c7.721-0.694,4.486-9.202,15.275-12.392c8.032,0.379,4.827-9.538,15.841-12.951c9.577-2.206,2.973-10.05,13.314-16.113  c7.88-1.481,2.505-10.451,12.359-16.357c4.163-2.097,5.243-5.639,3.796-8.858c0.216-3.69,1.745-7.304,4.283-9.891  c7.264-3.67-0.604-11.147,7.852-19.376c6.352-4.512-1.807-10.534,5.018-19.663c1.831-2.115,2.993-4.574,1.836-7.178  c23.943-0.62,60.477-0.261,93.12,2.571c28.981,36.015,27.56,36.404,35.856,35.631c4.511-0.435,5.609,0.259,11.502-0.849  c0.201,1.091,0.056,2.38-0.091,3.563c-0.988,8.025,3.807,2.789,15.335-1.338c5.935-2.124,9.455-3.362,5.586-9.981  c-0.484-0.825-1.089-1.496-1.803-2.02c3.505-6.12,2.711-15.263,2.244-21.478c-0.444-6.168-8.431-14.54-13.047-18.591  c-0.051,1.043-0.042,2.376,0.292,4.584c-3.295-5.598-7.366-11.98-11.747-18.304c-10.314-14.874-26.731-47.353-32.925-50.762  c-1.601-0.878-3.794-1.431-6.311-1.699c-9.589-5.293-26.856-10.033-41.374-8.556c-2.868,9.615-8.893,32.25-2.31,39.963  c-48.695,0.839-37.58,0.815-55.081,0.362c-3.137-6.846,0.066-9.487-1.452-13.2c-0.695-1.753-5.656-6.611-3.911-14.4  c2.674-8.802-4.825-6.513-7.925-15.907c0.007-0.744-0.14-1.353-0.481-1.806c-0.324-1.661-0.148-1.768-0.329-3.267  c-0.401-5.174-8.009-6.405-7.944-16.298c0.772-9.446-6.824-5.267-11.59-14.744c144.542-152.823,228.157-244.711,473.739-504.358  l0.782,0.5l26.597-27.806l3.27,10.427c-0.048,0.016-0.21,0.068-0.255,0.082c-7.981,9.691-1.997,19.442,6.432,19.969l3.743-1.205  c15.419,48.323,11.458,37.535,18.997,53.816c-159.494,86.688-268.002,255.761-268.002,449.701  c0,282.012,229.435,511.447,511.447,511.447s511.447-229.435,511.447-511.447C2593.498,690.252,2259.72,442.782,1930.827,544.781z   M839.369,71.363c-6.625-1.797-14.317-1.064-20.576,1.966c-2.059,0.998-4.657,4.733-4.925,5.125  c-0.097,0.043-11.998,5.244-12.095,5.285l-0.384,3.726c-38.75,2.981-28.25,2.937-41.512,1.45c-7.485-3.884-9.696-4.54-17.836-12.515  l0.49-1.319c10.796,2.215,3.977,1.839,31.656,1.364c70.435-21.678,89.129-19.458,176.527-23.186  c-13.888,2.912-34.753,17.224-60.244,24.783c-5.064,1.502-16.141,2.977-30.096,4.404c-0.036-0.097-1.748-4.737-1.783-4.835  l-13.876-2.404C844.382,74.873,841.409,71.916,839.369,71.363z M1495.057,1173.913c-0.399,2.4-2.599,8.759-5.554,10.383  C1491.843,1181.51,1493.801,1177.438,1495.057,1173.913z M1480.257,1185.822c-0.605-0.026-1.055-0.062-1.246-0.08l-3.938-4.802  C1477.223,1183.091,1478.987,1184.758,1480.257,1185.822z M1466.581,1183.922c6.862,8.164,4.763,6.843-4.192,1.606  c-5.053-2.944-9.617-11.998-10.38-13.568C1455.152,1170.187,1457.051,1172.571,1466.581,1183.922z M1326.015,1095.321  c-0.006,0.376-0.05,0.75-0.084,1.124C1325.926,1096.072,1325.956,1095.697,1326.015,1095.321z M1327.274,1170.696  c-0.353,1.213-0.846,2.377-1.481,3.464C1325.891,1172.842,1326.438,1171.697,1327.274,1170.696z M1320.431,1191.367  c0.197-0.815,0.551-1.514,1.043-2.098C1321.175,1189.994,1320.835,1190.698,1320.431,1191.367z M1320.444,1076.413  c0.553,1.477,0.931,3.077,0.869,4.867C1320.029,1079.849,1319.879,1078.256,1320.444,1076.413z M1967.677,589.779  c19.133-4.932,38.754-8.631,58.761-11.06c-3.655,2.583-3.475-14.419,11.933,244.614c-76.423-195.59-86.398-223.134-89.624-226.965  c7.716,2.824,8.07,2.826,15.502,0.063c1.803-0.828,1.634-0.688,2.863-2.175l0.536-1.242  C1967.732,590.201,1967.732,590.858,1967.677,589.779z M2121.821,577.099c29.179,2.527,57.593,7.773,84.964,15.534  c-5.558,0.822,0.298-18.497-78.292,347.749l-30.598,35.288l-23-58.864C2128.005,561.344,2127.084,579.755,2121.821,577.099z   M2211.187,593.934c27.855,8.204,54.622,18.97,80.008,32.061c-4.235,0.766,5.032-17.77-115.4,259.836l-32.334,37.29  C2217.651,577.375,2214.831,597.125,2211.187,593.934z M2297.171,629.152c23.248,12.426,45.308,26.79,65.955,42.891  c-3.214,0.353,7.391-10.778-163.3,186.073C2304.18,617.57,2298.664,632.456,2297.171,629.152z M2369.177,676.862  c21.645,17.47,41.684,36.852,59.832,57.913c-2.814-0.051,14.818-12.367-257.5,188.614l13.723-31.633  C2380.396,666.68,2369.598,680.475,2369.177,676.862z M2434.353,741.094c18.606,22.392,35.116,46.58,49.241,72.259  c-2.997-0.394,16.937-12.312-292.603,184.442l-53.156,3.214l24.937-57.483C2451.079,730.745,2433.842,744.439,2434.353,741.094z   M1895.645,918.153c-233.926-100.203-218.887-94.164-221.128-93.893c12.162-23.599,26.326-46.001,42.247-67.005  C1717.253,760.127,1706.157,749.45,1895.645,918.153z M1976.017,952.581l-48.456-20.756  c-215.544-191.904-202.337-181.286-205.89-180.966c17.28-21.988,36.546-42.339,57.489-60.83  C1778.863,693.223,1766.385,675.559,1976.017,952.581z M1895.338,702.22l145.688,278.208l-44.574-19.093  c-221.799-293.103-207.703-276.093-211.578-276.273c21.811-18.63,45.375-35.26,70.424-49.585  C1853.114,639.526,1852.661,636.727,1895.338,702.22z M1860.428,632.605c0.426-0.236,0.848-0.479,1.275-0.714l0.483,1.098  C1861.625,632.763,1861.031,632.64,1860.428,632.605z M1889.475,545.473l6.373-2.035l0.049,0.154l0.108-0.204l0.062-0.02  l-0.019-0.061l0.054-0.102c0.023,0.071,0.149,0.467,0.171,0.535l0.387,0.201l0.021,0.064l0.063-0.02l0.208,0.108l-0.05-0.158  l2.342-0.747c0.44,1.379,0.313,1.02,0.572,1.65c0.04,0.044,0.569,0.626,0.611,0.667l0.867,0.177l4.672-1.358  c-0.208,3.314,0.615,4.912,2.437,7.522l0.426,0.331c-5.931,2.142-11.808,4.396-17.636,6.748c-8.498-18.483-6.96-15.76-12.739-24.462  l1.248-0.572l-4.059-8.825l1.254-0.401c0.339,1.054,3.055,9.563,3.172,9.921c3.273-1.048,1.926-0.617,4.874-1.556  c0.103,0.324,3.796,11.916,3.903,12.239l0.39,0.208l0.021,0.065l0.063-0.02l0.208,0.111L1889.475,545.473z M1891.48,516.321  l-0.253,0.091l-0.181,0.326l-1.532-4.806l0.53,0.201c1.697-0.088,2.319-0.926,3.352-0.027c0.329,0.584,0.686,1.864,0.698,2.232  c-0.033-0.061-1.021-1.916-1.053-1.976c-0.084-0.03-1.299-0.464-1.382-0.496c-0.069,0.045-1.137,0.749-1.207,0.792  c-0.008,0.058-0.192,1.296-0.197,1.354L1891.48,516.321z M2055.632,928.038l-2.123-35.691l10.058,25.741l-2.689,18L2055.632,928.038  z M2058.425,952.501l-0.49,3.278l-0.762-1.83l-0.221-3.707L2058.425,952.501z M2058.998,1076.117l2.375,5.632l-11.481,9.022  l2.974-14.287L2058.998,1076.117z M2065.809,1092.268l0.014,0.033l-21.214,23.852l1.798-8.639L2065.809,1092.268z   M2048.282,1026.188c-0.75,0.099-1.488,0.347-2.17,0.771l-1.957-2.586l5.822-2.439  C2049.331,1023.31,2048.743,1024.719,2048.282,1026.188z M2037.294,1015.306l-10.411-13.758l22.363,4.618l0.24,4.032  L2037.294,1015.306z M2026.888,1108.846l12.995-31.588l1.588-0.095l-5.033,24.179L2026.888,1108.846z M2032.954,1118.085  l-3.036,14.586l-23.872,26.841l12.329-29.971L2032.954,1118.085z M1984.457,1049.384l39.84-16.691l5.444,4.847l-22.577,14.609  L1984.457,1049.384z M1992.733,1061.488l-12.851,8.316l-51.5,3.073l35.554-14.896L1992.733,1061.488z M2010.514,998.168  l16.293,21.531l-0.372,0.156L1999.53,995.9L2010.514,998.168z M1983.085,981.259l-29.587-26.342l35.935,15.393l10.995,14.53  L1983.085,981.259z M2038.274,1045.138l2.134,1.9l-3.589,8.724l-12.593-1.534L2038.274,1045.138z M2009.795,1063.567l22.677,2.762  l-0.143,0.346l-30.114,1.797L2009.795,1063.567z M2016.798,988.22l-6.929-9.156l34.821,14.915L2016.798,988.22z M1921.582,941.246  l39.942,35.561c-337.078-69.602-319.086-66.194-320.999-65.726c7.578-27.316,17.626-53.612,29.894-78.634  C1671.796,834.84,1655.422,827.235,1921.582,941.246z M1977.969,991.448l37.205,33.125l-52.802,22.122  c-354.875-43.225-335.854-41.178-337.618-40.636c1.738-29.377,6.24-58.02,13.28-85.664  C1639.768,922.048,1619.868,917.506,1977.969,991.448z M1941.853,1055.291l-46.708,19.568  c-281.586,16.799-266.169,15.696-267.599,16.304c-3.233-25.578-4.194-49.949-3.282-74.781  C1625.44,1016.869,1606.711,1014.47,1941.853,1055.291z M1864.437,1087.724c-1.906,0.799-216.149,90.532-216.907,90.917  c-8.31-24.793-14.554-50.523-18.525-76.989C1630.106,1101.79,1615.16,1102.595,1864.437,1087.724z M1897.675,1085.741l63.426-3.784  l-276.572,178.972c-13.127-22.841-24.328-46.921-33.411-72.007C1651.954,1188.75,1640.019,1193.687,1897.675,1085.741z   M1983.434,1080.625l44.243-2.639l-18.382,44.685l-271.13,213.047c-17.849-20.274-33.955-42.116-48.042-65.32  C1691.185,1269.758,1980.633,1082.437,1983.434,1080.625z M2000.781,1143.365l-16.888,41.054l-185.437,208.496  c-18.895-14.932-36.576-31.33-52.899-49.002L2000.781,1143.365z M1971.21,1215.248l-93.762,227.925  c-24.773-12.415-48.28-26.992-70.251-43.517L1971.21,1215.248z M1993.364,1190.34l32.052-36.038l-66.664,320.297  c-24.695-6.906-48.548-15.842-71.381-26.602L1993.364,1190.34z M2040.106,1137.785l30.456-34.243l21.977,52.118l-42.774,334.645  c-27.518-1.921-54.374-6.273-80.352-12.861L2040.106,1137.785z M2094.228,1076.934l7.927,3.5l-2.932,22.937l-12.053-18.501  L2094.228,1076.934z M2088.717,1003.064l1.516-1.749l1.743,2.675C2090.911,1003.629,2089.825,1003.32,2088.717,1003.064z   M2097.066,1120.241l-1.747,13.668l-16.649-39.483l0.911-1.024L2097.066,1120.241z M2082.339,989.2l-7.119,5.254  c-0.058-0.132-7.579-17.1-7.638-17.232l-0.675,0.106l-0.777-1.867l1.354-9.059L2082.339,989.2z M2069.936,949.989l1.687-11.285  l13.539,34.651L2069.936,949.989z M2101.057,1175.861l14.926,35.397l12.367,277.859c-23.145,2.338-45.27,2.848-67.567,1.828  L2101.057,1175.861z M2145.109,956.563l-17.462,40.251l6.977-32.512L2145.109,956.563z M2138.114,948.036l0.553-2.578l22.533-25.987  l-7.355,16.955L2138.114,948.036z M2161.445,1016.576l-28.749-3.72l0.224-0.516l38.888-2.351L2161.445,1016.576z M2170.045,1028.794  l-20.207,8.213l14.153-8.996L2170.045,1028.794z M2128.134,1023.371l18.795,2.432l-16.157,10.27l-5.883-5.22L2128.134,1023.371z   M2130.554,1056.731l13.954,18.149l-23.796-5.073l-0.397-8.915L2130.554,1056.731z M2154.865,1088.351l3.859,5.019l-18.379-8.114  L2154.865,1088.351z M2115.189,1002.378l-6.702,0.405l-5.821-14.897l18.573-13.708L2115.189,1002.378z M2119.957,1042.948  l-0.427,0.272l0.226-0.534L2119.957,1042.948z M2113.023,1144.734l1.55,34.836l-10.736-25.459l2.509-19.625L2113.023,1144.734z   M2108.502,1117.615l2.458-19.227l1.099,24.686L2108.502,1117.615z M2128.309,1240.488l96.233,228.217  c-27.373,8.988-55.865,15.481-85.223,19.164L2128.309,1240.488z M2126.899,1208.8l-2.043-45.903l177.253,272.077  c-21.394,11.775-43.828,21.879-67.121,30.159L2126.899,1208.8z M2123.892,1141.237l-2.325-52.233l51.169,22.591l207.157,269.437  c-21.147,18.149-43.96,34.405-68.179,48.505L2123.892,1141.237z M2159.451,1076.246l2.7,2.395l-1.026-0.219L2159.451,1076.246z   M2171.481,1091.893l7.378,1.573l19.726,17.502l-18.83-8.313L2171.481,1091.893z M2193.767,1120.879l31.825,14.05l211.396,187.56  c-14.938,18.311-31.258,35.449-48.805,51.253L2193.767,1120.879z M2258.632,1149.516l226.985,100.211  c-12.147,22.575-26.135,44.016-41.759,64.13L2258.632,1149.516z M2231.625,1125.554l-30.917-27.431  c2.761,0.589,318.767,67.979,319.648,68.097c-7.772,25.605-17.722,50.269-29.649,73.772  C2489.957,1239.573,2233.792,1126.511,2231.625,1125.554z M2184,1083.299l-37.328-33.119l45.557-18.516  c365.1,47.241,344.417,44.721,345.774,44.508c-2.54,27.301-7.479,53.913-14.617,79.624  C2522.463,1155.371,2538.499,1158.871,2184,1083.299z M2178.507,1018.784l15.994-10.166l29.588-1.789l-33.319,13.542  L2178.507,1018.784z M2212.955,1023.241l45.492-18.489c294.059-17.777,277.566-16.497,279.261-17.448  c2.669,26.585,2.971,52.294,1.167,78.214C2538.052,1065.247,2552.892,1067.225,2212.955,1023.241z M2290.34,991.789  c241.573-98.183,228.025-92.409,229.269-93.718c7.906,25.517,13.625,51.983,16.964,79.177  C2535.095,976.81,2549.494,976.122,2290.34,991.789z M2255.983,993.866l-42.297,2.557  c288.524-183.396,273.068-173.067,274.119-175.213c11.342,21.604,21.015,44.213,28.833,67.666  C2514.262,888.431,2532.031,881.671,2255.983,993.866z M2066.839,896.19l-15.453-39.55c-17.575-295.458-15.034-276.62-19.68-278.525  c28.011-3.071,56.496-3.674,86.058-1.378C2112.792,578.252,2116.97,560.671,2066.839,896.19z M1946.877,595.684  c0.067,0.025,0.129,0.047,0.195,0.071c-0.093-0.006-0.191-0.019-0.296-0.041C1946.81,595.704,1946.844,595.694,1946.877,595.684z   M1941.584,597.379c-3.461,3.771-7.488-10.648,98.911,261.66l2.996,50.366c-27.791-42.65-58.677-136.403-131.3-301.423  C1921.831,604.121,1931.636,600.59,1941.584,597.379z M1920.363,506.944c1.867,5.847,1.641,5.007,1.751,5.727  c-0.178,0.543-0.284,0.669-0.641,1.289l-0.015,0.086C1919.865,510.931,1920.387,509.849,1920.363,506.944z M1923.875,523.042  l-1.33,0.425l-1.394-4.259l0.049-0.022l0.563-0.946l0.25-1.034C1923.267,521.145,1922.843,519.815,1923.875,523.042z   M1918.353,500.648l-0.079-0.14l-0.007-0.13L1918.353,500.648z M1925.795,569.252l1.071,1.679  c-16.771,5.901-20.733,6.022-22.469,11.886c-0.012,2.875-0.324,2.44,4.409,9.856l1.201,1.172l2.4,1.127  c-1.692,0.657-3.379,1.321-5.062,1.997l-7.896-17.943C1908.114,575.531,1916.892,572.257,1925.795,569.252z M1886.474,428.175  c-1.257,0.468-2.093,0.749-3.269,1.466l-0.253,0.331c0.006,0.076,0.833,10.6,0.837,10.677l5.482,4.535  c-0.089,0.078-4.745,4.127-4.833,4.205l0.092,0.288c-0.651,0.43-0.758,0.738-1.518,1.804c-0.036,0.03-0.271,0.224-0.308,0.252  c-0.208,0.525-0.171,0.43-0.25,0.63l0.132-0.042l0.559,1.682l-0.119,0.281l0.192-0.061c0.016,0.049,0.01,0.03,0.031,0.096  l2.157,0.715l0.763-0.245l0.297,0.928l-0.08,0.188l0.127-0.041l0.024,0.078c1.669,0.261,3.125-0.19,4.863-0.628l1.034,3.239  c-2.817,1.648-2.151,1.179-3.138,2.023l-0.516,0.976l-0.098,0.877l0.087,0.446l-0.022-0.005  c2.106,6.993,12.898,41.582,13.218,42.585l-1.703,0.543c0.055,0.173,6.263,19.607,6.319,19.78l1.697-0.544l0.824,2.58  c-0.059,1.482-0.1,3.153-0.365,4.92c-7.081-22.186-7.526-23.633-9.16-28.709l-0.524-0.708l-0.894-0.118  c-6.712,1.913-4.618,1.254-9.412,2.957c-0.044,0.04-0.632,0.574-0.673,0.615c-0.006,0.037-0.138,0.855-0.143,0.892  c0.154,0.6,0.087,0.37,0.335,1.145l-2.143,0.681l0.179,0.562l-0.032-0.005l-0.013-0.041l-0.08,0.026l-0.164-0.027l0.023,0.072  l-6.33,2.021l-0.018-0.057l-0.116,0.1l-0.086,0.027l0.012,0.037l-0.096,0.083c-0.577,0.184-5.29,1.691-5.868,1.869  c0.087,0.237,3.215,10.048,3.291,10.289l-1.281,0.409c-0.075-0.164-4.255-9.252-4.332-9.419l-1.12,0.514l-0.667-2.099  c0.046-0.015,2.611-0.841,2.657-0.855c7.803-9.475,2.295-19.5-6.432-20.045l-0.148,0.048c-0.055-0.172-4.587-14.25-4.643-14.42  l-1.269,0.386l-20.054-62.838l40.823-7.745C1883.906,420.004,1886.279,427.556,1886.474,428.175z M1878.407,168.834  c7.899,2.895,11.763,6.149,13.559,8.506l1.207,0.289c0.179-0.037,11.9-2.464,12.075-2.498l-2.788-13.42  c0.744-0.119,1.475-0.269,2.196-0.452c0.038,0.185,2.749,13.234,2.787,13.417c8.63-1.79,7.191-1.438,8.518-1.947  c1.065-0.975,0.752-0.617,1.37-1.57l7.687-1.576l0.03,0.147l0.128-0.18l0.069-0.013l-0.012-0.065l0.53-0.752l-1.46-7.032  l38.368,3.355c1.732,0.911,2.731,1.482,2.807,1.526l0.708-1.218c13.354,1.168,24.12-0.751,39.231,19.71  c12.94,17.518,18.855,41.375,13.084,65.228c-7.029,28.84-30.48,55.502-51.703,76.373c-10.174,9.987-10.112,13.525-44.732,28.049  c-13.204,4.504-33.059,8.582-51.029,11.723c-8.57-29.505-17.832-63.242-22.237-85.412l9.208-2.105l-1.063-4.785l-9.024,2.256  c-7.314-40.588-7.293-71.838-0.053-93.549c4.13-3.939,8.35-7.621,12.577-11.05C1874.917,168.791,1870.975,169.408,1878.407,168.834z   M1844.954,277.129l-5.023,1.256l-35.716-12.736l-0.879-0.044c3.773-32.366,20.468-58.407,40.107-78.401  C1836.28,214.302,1839.901,249.448,1844.954,277.129z M1851.667,173.606l2.469-0.511c-1.263,1.08-2.522,2.185-3.777,3.31  C1850.781,175.453,1851.211,174.513,1851.667,173.606z M1071.214,893.925c-2.907,0.937-1.679,0.508-2.679,1.049  c-0.29,0.39-0.188,0.231-0.527,0.828c-0.054-0.016-0.223-0.065-0.271-0.083l-1.621,0.471l-0.181-0.033l0.064,0.13  c-0.127,0.141-0.167,0.234-0.275,0.427l-0.132,0.515c-0.038-0.006-0.064-0.01-0.097-0.015c-1.58,0.411-5.836,2.205-6.72,3.59  c-0.075,0.352-0.032,0.223-0.191,0.566c-0.425,2.615,1.088,8.026,3.487,10.264c0.23,0.109,0.699,0.342,0.946,0.408  c1.091-0.045,4.087-0.397,5.173-0.744c2.878,9.419,3.265,16.57,12.173,17.813c1.325,5.205,0.372,1.53,1.654,6.101l-0.149,0.155  c-0.33,0.141-2.818,0.855-3.164,0.956l0.114,0.371l-0.838,0.255l0.635,2.073l-0.531,0.162l-0.045-0.149l-0.111,0.197l-0.067,0.021  l0.02,0.064c-0.037,0.066-0.469,0.831-0.508,0.895c0.02,0.065,1.305,4.222,1.326,4.287c0.362,0.212,0.833,0.488,1.18,0.691  l-0.054-0.18l0.57-0.179c0.056,0.182,0.094,0.304,0.141,0.46l0.851-0.259l0.36,1.17c-5.965,2.216-9.005,5.713-8.085,11.409  c-0.103,0.347-0.069,0.25-0.346,1.073c0.026,0.473,0.634,2.357,0.77,2.811l-0.172,0.057c-0.06-0.198-0.664-2.173-0.716-2.346  c-0.172,0.053-2.938,0.902-3.109,0.953l0.228,0.745c-0.178,0.056-0.777,0.246-0.941,0.294l0.633,2.063l-0.529,0.16l-0.045-0.147  l-0.11,0.194l-0.069,0.021l0.02,0.065l-0.509,0.894c0.021,0.07,1.293,4.217,1.314,4.287l0.952,0.559l0.021,0.07l0.065-0.02  l0.211,0.124l-0.052-0.172l0.534-0.162c0.056,0.184,0.175,0.571,0.226,0.739l0.921-0.281l0.801,2.664  c-13.068,9.616-15.323,1.932-20.88,4.437C1034.964,823.57,949.157,690.911,826.438,609.7c4.888-7.685-8.141,13.14,107.519-172.103  C962.174,529.885,933.608,435.081,1071.214,893.925z M1076.082,919.593l0.648-0.201l0.844,0.09c0.956,2.707,0.962,2.845,1.848,5.996  c-0.794-0.144-0.509-0.054-1.287-0.412l-0.328-0.417c-0.446-1.204-0.27-0.646-0.757-2.407l-0.07-0.063l-0.207-0.325  L1076.082,919.593z M1088.148,1090.568l-0.024,0.034c17.692,12.467,15.616,10.955,16.616,11.818l-31.227-4.833l0.766-2.095  l4.596-4.669l5.174-1.099L1088.148,1090.568z M1085.058,946.058l1.684-0.355l0.418,1.394l-1.633,0.498L1085.058,946.058z   M1244.384,1014.887c1.348,5.515-7.191,4.008-10.682,5.661c-5.485,0.776-10.833,3.599-16.525,4.527  c0.091-1.801,0.071-0.595,0.071-6.037c-0.117-0.044-4.443-1.677-4.561-1.719c-3.676,4.167-2.651,2.961-4.634,5.428l-1.353,0.674  l-5.659-1.728c-0.727-0.584-1.403-1.229-2.078-1.874c-0.23-2.075-0.154-1.796-0.982-6.763c-0.123-0.025-4.651-0.947-4.773-0.974  l-0.425,0.673c-3.275-4.259-6.209-8.416-9.947-11.86c-4.705-2.856-2.268-8.239,4.076-6.209  C1209.697,997.476,1229.035,1004.275,1244.384,1014.887z M1190.409,974.68c3.1,1.49,2.984,2.54,7.879,1.523  C1196.446,977.889,1192.126,978.365,1190.409,974.68z M1209.29,977.981c1.531,0.893,1.482,1.042,2.482,1.727  c0.527,0.678,1.185,1.239,1.948,1.642C1211.443,981.349,1210.147,980.101,1209.29,977.981z M1259.284,1080.93  c5.738,8.664,9.609,19.813,12.293,29.224c-4.385-0.114,1.083,0.348-36.72-3.397L1259.284,1080.93z M1244.91,991.752  c3.62,1.98,3.209,2.963,5.159,4.261C1247.556,995.673,1245.619,993.871,1244.91,991.752z M1211.209,1168.679  c1.057-0.217,31.169-7.352,60.368-8.109c-8.477,29.721-22.246,47.214-46.619,63.626l-6.459,1.085l-4.831-2.16  c-0.08-0.087-2.95-3.228-3.028-3.316l-0.158,0.051c-7.701-22.604-5.412-14.748-10.039-34.445l2.459-11.652L1211.209,1168.679z   M1209.01,1055.287l1.513-4.409c0.049,0.016,0.035,0.011,0.116,0.038l3.028-3.313l4.523-2.022L1209.01,1055.287z M1187.687,1043.285  c-0.045-0.014-0.03-0.01-0.164-0.052c-6.951,22.48-4.615,15.93-10.334,29.558c-0.012-0.038-3.083-10.127-3.106-10.159l-9.513-31.116  c6.777-0.421,3.631-0.399,14.133-0.01l5.86,2.923l2.65,4.573L1187.687,1043.285z M1184.409,1019.954l-0.863-0.107l-1.777-0.909  l-1.621-1.886c-0.852-3.066-0.399-1.601-2.067-6.609C1180.619,1013.348,1182.752,1016.556,1184.409,1019.954z M1171.201,973.511  c2.044,0.585,4.578,2.426,7.985,0.417C1176.856,976.934,1172.864,975.828,1171.201,973.511z M1177.891,1010.223l-4.757-0.183  c-2.163,5.107-1.58,3.65-2.672,6.623l-1.771,1.752l-1.852,0.76l-1.99,0.077l-1.895-0.605l-1.908-1.609  c-3.509-7.549-0.931-0.099-6.983-19.896C1162.392,998.348,1170.278,1001.631,1177.891,1010.223z M1153.993,975.72  c1.859,0.142,3.204,0.263,4.883-0.572C1157.423,976.298,1155.623,976.455,1153.993,975.72z M1154.138,1170.398  c5.485,1.178,3.506,0.537,8.673,2.81l4.836,4.588c16.166,33.058,13.404,29.701,19.889,49.696l0.163-0.053l-0.483,4.281l-2.65,4.585  l-5.86,2.914c-30.663,1.129-51.7-5.706-75.841-24.639l-3.02-5.807l0.556-5.27l2.145-3.78c0,0-0.005,0.004,0.081-0.075  c-0.03-0.041-0.039-0.06-0.069-0.111c18.481-13.841,17.038-13.465,44.974-28.267L1154.138,1170.398z M1080.927,1039.926  c-1.149,6.531,0.552,13.938-1.51,20.229l-0.793,0.084c-4.617-1.595-2.773-0.874-6.826-2.121c-0.074,0.099-2.853,3.803-2.929,3.9  c2.969,4.686,2.101,3.379,3.933,5.965l0.295,1.67c-0.393,0.566-0.786,1.133-1.183,1.694c-2.519,1.651-5.291,2.893-8.116,3.99  c-0.123-0.015-2.989-0.365-3.112-0.379l-0.992,1.891c-3.275,1.143-4.259,1.501-5.052,1.79c0.727-8.868,1.231-17.798,1.498-26.787  c6.773-9.447,14.34-17.455,22.698-23.831C1084.502,1028.432,1080.436,1036.1,1080.927,1039.926z M1064.052,1086.795l0.031,0.089  l-0.106,1.999l-0.784,1.832l-1.354,1.46l-2.279,1.028c-3.083-0.026-1.742-0.05-6.344,0.125c0.126-1.136,0.271-2.266,0.39-3.404  C1056.97,1088.432,1060.49,1087.39,1064.052,1086.795z M1053.75,1141.904l0.834,1.82l0.159,1.981l-0.529,1.925l-1.527,1.972  c-1.093,0.559-2.57,1.263-6.257,3.459c0.021,0.127,0.763,4.683,0.784,4.809c5.442,1.108,3.89,0.827,7.03,1.296l2.068,1.391  l1.111,1.651l0.477,1.94l-0.212,1.987l-1.187,2.184c-2.567,1.891-1.321,0.919-5.625,4.418c0.04,0.121,1.504,4.506,1.543,4.627  c5.565,0.211,3.988,0.181,7.141,0.155l2.279,1.028l1.354,1.46l0.784,1.832l0.106,1.999l-0.065,0.185  c-9.922-1.724-19.042-6.886-25.285-14.228c2.759-10.209,5.238-20.53,7.368-30.979c4.434,0.808,2.664,0.375,5.823,1.392  L1053.75,1141.904z M1052.16,1191.197c2.358,1.252,5.042,2.116,7.673,2.942c0.061,0.116,0.796,1.515,0.854,1.626l3.004-0.367  c3.568,1.22,6.96,2.759,9.438,5.495l-0.327,1.847c-1.835,2.593-0.962,1.279-3.933,5.965c0.076,0.101,2.855,3.798,2.929,3.9  c5.34-1.559,3.833-1.088,6.826-2.112l0.845,0.086c2.076,9.068,0.562,18.376,2.404,27.357c1.442,5.02-3.289,6.657-7.773,1.052  c-16.482-15.612-27.89-32.261-33.908-49.484C1042.344,1184.236,1048.374,1190.493,1052.16,1191.197z M1078.875,1179.911  l-4.596-4.681c-3.899-10.664-7.098-21.173-7.616-33.138l57.275,8.87c-18.028,17.469-20.98,18.677-35.897,29.225l-3.992,0.814  L1078.875,1179.911z M1102.537,1071.221c0.028-0.039,0.02-0.028,0.071-0.095l-2.209-3.903l-0.556-5.271l3.02-5.807  c8.461-6.622,5.158-4.291,14.495-10.232l13.678,44.737C1114.958,1080.898,1121.458,1085.329,1102.537,1071.221z M1113.267,1034.196  l-1.725,0.995l-1.968,0.349l-2.428-0.539c-1.607-1.229-1.746-1.397-5.802-4.162c-0.103,0.071-3.909,2.699-4.013,2.768  c1.335,5.394,0.927,3.871,1.829,6.903l-0.349,2.461l-1.026,1.722l-1.546,1.26l-1.883,0.658l-2.491-0.149l-0.744-0.399  c-1.028-13.866,4.59-27.874,15.38-35.66l7.139,23.35L1113.267,1034.196z M1022.189,1063.835c5.061,3.349,1.881,11.827-5.308,10.389  c-1.492-0.079-2.611,0.102-3.423,0.491c0.887-10.974,1.381-22.056,1.498-33.228c0.072,0.004,2.676,0.156,2.748,0.161l0.29-0.252  c-0.04,0.156-0.025,0.097-0.065,0.258c4.23,0.476,5.336,2.339,9.86,1.969l1.977-0.872c0.052,0.677,0.141,1.062,0.286,1.641  c3.869,3.258,5.475,10.799-0.727,12.221C1023.796,1054.653,1015.321,1058.264,1022.189,1063.835z M616.377,1269.546  c10.987-3.008,12.765,4.595,18.621,2.764c4.637-1.608,10.015-1.021,14.103,1.514c3.862,4.713,7.966,1.335,12.631,1.159  c111.913,171.779,104.853,161.014,105.534,161.857c-21.539,12.009-44.135,22.334-67.622,30.788  C699.491,1466.334,704.268,1477.978,616.377,1269.546z M593.379,1267.269c3.205-1.091,6.749-1.171,9.976-0.259  c91.512,217.019,85.557,203.061,86.208,204.117c-27.707,9.243-56.574,15.926-86.333,19.723  C603.347,1489.994,603.88,1503.22,593.379,1267.269z M513.602,1493.449c-27.89-1.894-55.105-6.279-81.417-12.964  c1.035-1.489-2.086,12.342,50.138-238.587l6.944,3.992l5.824,0.47c4.555,4.018,3.577,7.376,8.081,8.8  c4.031,1.293,9.647-3.334,17.738,2.045c5.318,6.917,11.809-2.842,21.975,4.339C511.749,1505.148,513.256,1491.938,513.602,1493.449z   M422.229,1477.826c-25.157-7.003-49.445-16.107-72.671-27.106c1.447-1.354-4.96,13.493,107.687-260.342l32.05-36.036l-7.784,37.399  l-2.146,0.698c-9.7-2.154-7.737-3.298-12.82-4.427l-1.502,1.123c-1.794,2.604-1.061,1.062-4.768,9.507  c0.131,0.038,2.292,0.67,2.422,0.712l0.827-1.281l1.82,1.245l1.517,2.75c-1.27,7.076,0.612,12.995,0.88,14.094  c-5.021,3.59-3.083,10.974,2.249,12.196c0.773,0.148,1.528,0.375,2.271,0.635l1.068,2.067  C419.265,1490.832,422.117,1476.481,422.229,1477.826z M340.371,1446.239c-25.25-12.657-49.177-27.573-71.509-44.495  c1.28-0.75-8.379,9.865,166.226-186.452C335.138,1458.26,340.499,1444.86,340.371,1446.239z M439.897,952.625l-48.458-20.757  C175.213,739.355,189.331,751.393,187.037,750.974c16.971-21.231,35.783-40.925,56.201-58.836  C243.685,693.652,232.505,678.565,439.897,952.625z M508.693,931.656l1.687,28.365l-1.559-0.407l-1.216-1.478l-1.569,0.426  l0.389,2.097l-1.205,2.804l0.498,0.78c-0.61,0.561-0.337,0.332-1.37,1.452c-0.63,0.372-1.297,0.777-2.025,1.23l-0.876-1.278  l-2.804-0.393l-1.43-1.21l-1.485,0.611l0.684,1.969l-0.803,3.012l0.762,0.887c-3.533,0.959-4.354,0.349-6.616,0.643l-1.079-0.785  l-1.396,0.796l0.285,0.626c-0.878,0.443-0.644,0.349-1.158,0.746l-26.075-11.17C240.581,670.983,252.787,686.535,250.839,685.621  c21.043-17.667,43.683-33.489,67.684-47.195C318.646,640.712,307.874,623.467,508.693,931.656z M504.376,859.08l2.996,50.376  C318.165,619.088,328.53,634.578,327.143,633.614c24.384-13.235,50.109-24.293,76.895-32.973  C403.853,602.638,398.155,587.233,504.376,859.08z M502.253,823.385c-92.848-237.621-87.598-224.627-88.543-225.76  c24.055-7.206,48.925-12.5,74.45-15.67C487.832,583.3,487.141,569.326,502.253,823.385z M588.513,580.523  c26.88,2.549,53.089,7.429,78.425,14.439c-0.951,1.369,3.477-18.233-74.565,345.461l-16.269,18.762l-1.248-2.142l0.177-1.928  l-1.368-0.858l-1.195,1.782l-2.845,1.084l-0.322,1.29c-2.021-0.632-3.885-1.144-5.676-1.564l0.264-1.296l-1.762-2.249l-0.168-1.865  l-1.454-0.67l-0.982,1.937l-2.589,1.558l-0.147,1.356c-0.875-0.126-1.931-0.264-3.018-0.386l-14.998-38.383  C591.591,563.342,589.03,582.321,588.513,580.523z M797.786,654.747c8.941,5.942,17.66,12.19,26.147,18.728  c-0.641,0.579,6.795-7.94-142.567,164.314L797.786,654.747z M708.947,753.872c55.408-127.722,52.175-120.157,52.4-120.991  c5.453,2.936,10.833,5.99,16.151,9.137L708.947,753.872z M832.433,680.183c20.753,16.778,40.025,35.315,57.567,55.406  c-0.739,0.438-252.515,186.297-254.612,187.845l13.723-31.632C842.679,668.566,831.973,681.023,832.433,680.183z M897.012,743.816  c18.05,21.676,34.125,45.044,47.981,69.817c-1.062,0.36,13.648-8.879-252.693,160.416c-4.984-0.839-6.01-3.342-9.89-2.324  c-1.364,0.312-7.803,4.243-15.438,0.698c-2.245-1.246-4.601-1.792-6.963-0.791c-12.376,5.424-15.127-2.678-20.985-0.746  c-11.263,4.169-15.199-4.696-21.169-2.94c-0.875,0.271-1.035,0.36-2.035,0.594l10.833-24.971  C908.711,735.398,896.285,744.688,897.012,743.816z M791.215,987.131c0.754,0,1.611-0.177,2.312-0.426  c15.066-5.286,14.326,2.313,20.895,0.567c1.138-0.287,7.541-3.667,14.982,0.014l-75.181,4.546l13.319-5.413  c2.441,0.869,4.713,0.372,6.318-0.822c1-0.682,7.566-2.691,13.805,0.566C789.461,987.246,791.801,987.131,791.215,987.131z   M817.224,975.36c-7.751-4.748-10.254,4.341-21.317-0.469c1.649-0.67,185.301-75.286,186.063-75.67  c7.901,25.099,13.695,51.122,17.173,77.863c-0.863-0.042,0.63-0.099-6.477,0.331c-2.435-1.057-3.913-1.008-5.487-0.656  c-6.005-2.77-9.757,5.006-20.01,0.251c-2.231-1.245-4.579-1.794-6.945-0.801c-12.958,5.588-15.323-3.244-21.687-0.302  c-12.371,5.928-15.331-2.54-21.458,0.288c-12.437,5.905-15.412-2.511-21.495,0.311c-12.146,5.897-15.317-2.542-21.422,0.274  c-10.581,5.012-14.762-0.339-18.661-0.337c-2.669-0.012-8.819,4.356-16.834,0.218C831.151,972.064,827.73,980.79,817.224,975.36z   M770.95,973.147c-1.855-0.354-3.632,0.058-5.188,1.211c-7.803,3.098-13.601-0.669-15.041-1.165  c-5.765-2.093-8.899,5.422-20.384,0.05c-5.658-3.203-8.06,3.34-17.742,0.956c1.967-1.25,236.892-150.539,237.563-151.07  c11.112,21.02,20.657,42.989,28.432,65.775C977.611,889.071,989.669,884.253,770.95,973.147z M677.563,996.467l20.709-13.163  c3.898,0.941,5.921,3.473,9.917,1.754c8.573-4.418,15.695,0.401,16.915,0.727c5.095,1.473,8.162-4.466,17.635-1.171l-22.874,9.297  L677.563,996.467z M687.972,1006.872l-33.318,13.541l-12.267-1.587l15.992-10.165L687.972,1006.872z M619.995,981.333  c2.724-0.098,9.349-3.555,16.801,1.51c1.944,1.515,4.657,2.03,7.082,0.986c10.578-5.436,15.731,2.861,21.484,0.402  c3.872-1.989,8.474-2.319,12.567-1.049l-23.057,14.656l-34.73,2.1l0.492-2.04l1.409-1.284l-0.425-1.567l-2.108,0.462l-2.869-1.07  l-1.137,0.745c-0.76-1.296-1.539-2.55-2.321-3.733l1.095-0.873l0.258-2.801l1.208-1.496l-0.621-1.403l-2.032,0.679  c-0.231-0.052-2.727-0.615-2.956-0.67l-1.022,0.921c-0.161-0.203-0.35-0.417-0.517-0.622l3.094-7.132  C616.123,979.57,616.213,981.464,619.995,981.333z M626.042,1016.165l-0.593-0.452l-1.309,0.444  c-0.309-1.168-0.689-2.392-1.074-3.62l1.388-0.509l0.551-1.348l10.684-0.646L626.042,1016.165z M633.929,1028.837l-3.665,1.49  l-0.403-0.092l-2.133-2.09l0.144-0.092L633.929,1028.837z M643.637,1102.697l-8.274-10.761l7.378,1.573l19.726,17.502  L643.637,1102.697z M689.478,1134.976l160.534,142.434c-5.738-2.696-9.385,4.826-19.696,0.031c-2.038-1.942-4.688-2.36-7.071-1.471  c-11.885,5.398-15.86-4.984-22.509-0.892c-4.272,1.781-9.223,1.689-13.369-0.24c-4.068-3.876-7.863-0.726-11.534-0.199  l-118.181-153.714L689.478,1134.976z M636.615,1111.637l123.037,160.03c-1.653,0.387-7.676,3.997-15.325,0.44  c-6.462-6.157-7.889,4.535-23.146-2.626c-5.797-2.958-9.575,4.711-19.888-0.077c-5.749-5.485-9.649,2.957-20.106-1.185  c-3.669-5.037-8.551-1.902-11.743-1.571l-75.919-116.53l3.021-8.307l0.018-2.877c1.025-1.978,1.099-4.125,0.04-6.213  c0.071-11.077-3.446-21.143-4.503-24.667l-2.198-2.822c0.518-0.346,1.028-0.681,1.571-1.06l0.681,0.891l2.805,0.191l1.497,1.207  l1.475-0.697l-0.754-1.969l0.6-3.015l-0.733-0.819c0.889-0.742,1.747-1.505,2.723-2.392l0.797,0.831l2.881-0.143l1.646,1.01  l1.311-0.897l-0.051-0.093L636.615,1111.637z M653.467,1262.299c-1.375,0.174-8.339,3.123-15.543-1.615  c-5.772-5.568-10.448,3.606-21.285-2.007c-1.517-1.579-3.466-2.33-5.71-2.049l-20.15-47.786l-2.043-45.901L653.467,1262.299z   M614.535,1087.495l4.208,0.897l3.857,5.017l-10.727-4.736l0.256-0.05l1.788,0.73l1.208-1.07L614.535,1087.495z M625.006,1078.465  l-1.672-2.175l2.698,2.394L625.006,1078.465z M604.413,967.161c-1.731-0.891-2.344-1.626-3.987-2.111l2.547-4.005l6.021-4.444  L604.413,967.161z M459.79,1113.185c-0.07-0.036-5.016-2.552-5.086-2.589c-0.061,0.023-3.989,1.49-4.049,1.514  c-1.931,3.2-1.487,2.452-2.277,3.821c-2.001-2.281-11.168-12.986-17.625-24.547l16.557-10.714l27.877-1.663  c0.617,1.029,1.236,2.061,1.859,3.009l-1.156,0.876l-0.258,2.804l-1.204,1.493l0.611,1.484l2.042-0.757  c0.232,0.052,2.722,0.615,2.951,0.67l1.089-0.989c1.238,1.567,2.626,3.173,4.336,5.011l-0.98,1.061l0.097,1.327l-8.009,19.47  c-7.243,7.974-6.25,6.795-6.879,7.832l-2.4-1.365l-0.565,1.07l-6.69-3.852l0.649-1.078  C460.662,1116.986,459.809,1113.269,459.79,1113.185z M431.424,1058.465l25.184,3.068l-12.85,8.315l-19.523,1.165  C424.397,1068.08,425.12,1064.627,431.424,1058.465z M421.231,1071.192l-28.969,1.728l35.235-14.761  C422.38,1063.828,421.349,1067.045,421.231,1071.192z M448.335,1049.429l12.289-5.148l1.722,1.685l1.692-0.325  c0.134,1.266,0.277,2.401,0.434,3.453l-1.71,0.325l-0.937,1.654L448.335,1049.429z M469.596,997.222  c0.027,0.088,0.046,0.177,0.077,0.263c0.097,1.296,0.034,2.602-0.169,3.886l-6.096-5.428L469.596,997.222z M446.963,981.303  l-29.588-26.343l35.938,15.394l10.996,14.53L446.963,981.303z M466.267,1068.402l0.181,0.093l-0.358,0.021L466.267,1068.402z   M473.748,979.108l7.588,3.251c-0.744,1.144-1.628,2.186-2.614,3.115l-0.134,0.03L473.748,979.108z M479.03,1137.424l7.234,3.758  l-16.336,18.367L479.03,1137.424z M480.194,1134.594c0.756-1.838,0.426-1.187,1.446-2.856l-0.215-0.139l0.831-2.019l2.833-2.226  l8.882,4.524l-0.173,0.833l-5.444,6.121L480.194,1134.594z M492.943,1036.984l0.42,0.374c0.002,0.082,0.001,0.165,0.003,0.248  c-0.134,0.001-0.268,0.003-0.402,0.004C492.952,1037.397,492.95,1037.192,492.943,1036.984z M501.624,1149.163l14.679,7.626  l0.373-0.717c-1.389,3.817-0.988,2.523-1.231,4.224l0.822,1.353c4.13,3.659,5.535,3.769,9.296,4.016  c0.866-0.797,0.194-0.032,3.535-4.374c0.076,0.012,1.953,0.301,2.029,0.31l2.716-2.083c0.033-0.046,3.795-5.198,3.827-5.244  c0.002-0.042,0.147-3.25,0.149-3.292c-3.324-7.438-2.434-4.945-3.903-10.931l8.15,3.163l-0.14,0.189  c-0.043,0.024-2.229,1.255-2.27,1.278c-0.073,0.12-1.868,3.065-1.94,3.185l2.5,2.538l1.433,0.551l-1.461,3.942  c-17.378,18.861-24.852,21.109-46.358,31.723L501.624,1149.163z M509.022,1132.164l4.154,1.957l2.272,3.972l1.135,7.416  c2.481,4.052,2.095,3.287,2.398,4.193c-0.03,0.03-0.855,0.856-0.888,0.884c-0.311,1-0.16,0.578-0.708,1.96l0.276,0.814l-0.214,0.588  l-15.179-7.886l1.713-8.232L509.022,1132.164z M508.955,1025.633c0.159-0.623,0.321-1.227,0.484-1.803l2.623-1.099  c-0.53,1.262-0.967,2.57-1.351,3.9c-0.245,0.106-0.488,0.225-0.721,0.371L508.955,1025.633z M514.047,1089.474l0.041-0.198  c0.016,0.009,0.029,0.018,0.044,0.027L514.047,1089.474z M519.514,928.089l-2.124-35.703l10.057,25.739l-2.691,18.009  L519.514,928.089z M522.305,952.545l-0.858,5.74c-0.043,0.013-0.092,0.027-0.135,0.041l-0.478-8.038L522.305,952.545z   M502.867,979.599l-0.606-0.259c0.14-0.074,0.273-0.153,0.415-0.226l0.324,0.378C502.954,979.527,502.912,979.564,502.867,979.599z   M533.815,950.036l1.688-11.295l5.578,14.275l-1.699-1.253l-0.652-1.811l-1.566-0.217l-0.405,2.091l-1.054,1.109L533.815,950.036z   M507.679,1242.198l1.324-2.276l5.276-2.065l2.513,0.611c0.109,0.095,2.161,1.869,2.267,1.966l4.657-3.307l-1.448-2.449l0.103-3.513  l2.69-4.159l2.3-0.971c0.144-0.002,3.46-0.054,3.604-0.054c0.027-0.121,1.156-5.272,1.184-5.393l-2.668-1.701l-2.042-2.339  l0.229-4.281l1.628-2.592c0.113-0.082,2.651-1.922,2.762-2.005c-0.045-0.12-1.744-4.692-1.788-4.812l-3.687,0.08l-2.462-1.082  l-1.026-1.117l-0.035-0.148l7.401-10.255c1.171-0.047,2.339,0.043,3.491,0.252c3.255,2.152,7.461,1.344,9.567-1.913  c2.074-3.76,5.641-6.573,9.682-7.827l-8.863,69.342c-4.348,1.101-9.068,0.385-12.836-1.951c-5.365-6.479-11.95,3.028-22.033-4.957  c-0.682-0.513-0.919-0.679-1.803-1.014L507.679,1242.198z M541.951,1176.896l12.349-12.331l1.024-0.328l-0.296,2.318  C548.8,1167.297,550.577,1173.208,541.951,1176.896z M564.937,1175.902l14.927,35.399l1.987,44.645  c-2.79,0.069-5.574-0.554-8.039-1.833c-5.305-5.502-8.877,1.875-18.679-1.501L564.937,1175.902z M574.193,1169.51  c1.025-0.113,2.112-0.1,3.763-1.068l0.497,11.171L574.193,1169.51z M530.718,896.234l-15.451-39.544  c-17.304-290.907-16.094-274.373-16.854-275.904c27.174-2.754,53.674-3.021,79.879-1.127  C577.681,580.926,580.576,562.531,530.718,896.234z M359.522,918.196c-232.087-99.417-218.75-93.93-220.392-93.953  c12.127-23.093,26.166-45.026,41.908-65.595C181.766,760.253,171.266,750.588,359.522,918.196z M385.459,941.289l39.944,35.563  c-337.422-69.672-319.109-66.217-321.086-65.701c7.736-27.157,17.95-53.277,30.329-78.137  C135.991,834.832,118.919,827.114,385.459,941.289z M441.847,991.492l22.405,19.947c-0.91,1.434-1.271,2.931-0.966,4.748  l-1.016,0.767l-1.934,0.098l-0.675,1.454l1.864,0.983l1.491,2.726l1.747,0.158c-0.316,1.782-0.572,3.578-0.767,5.345l-1.762-0.098  l-1.981,1.966l-1.871,0.375l-0.49,1.546l2.019,0.697l0.251,0.326l-33.911,14.207c-355.793-43.337-336.154-41.38-338.351-40.345  c1.924-29.52,6.64-58.288,13.918-86.035C103.568,922.105,83.661,917.533,441.847,991.492z M405.73,1055.336l-46.706,19.567  c-284.688,16.982-266.803,15.46-268.783,16.967c-3.19-26.349-3.972-51.031-2.878-75.825  C88.959,1017.024,71.143,1014.582,405.73,1055.336z M328.317,1087.767c-230.087,96.393-217.217,90.737-218.442,92.045  c-8.342-25.26-14.536-51.484-18.377-78.458C93.505,1102.17,77.023,1102.757,328.317,1087.767z M361.555,1085.785l61.654-3.678  c0.098,0.282,0.193,0.564,0.296,0.846c-291.71,188.768-275.877,178.276-276.821,179.614c-13.301-23.339-24.595-47.958-33.679-73.615  C115.635,1189.385,100.5,1195.152,361.555,1085.785z M428.208,1093.03c7.221,13.011,17.532,24.54,18.303,25.393l0.893-0.806  c-0.029,0.05-1.6,2.769-1.627,2.82l0.213,2.413l-0.033-0.018c0.018,0.083,0.504,2.285,0.52,2.369  c0.064,0.035,4.246,2.302,4.308,2.339c0.071-0.019,4.357-1.193,4.426-1.216l0.466-0.781l6.322,4.115l-0.985,1.612l0.715,0.435  c-275.133,216.193-260.608,204.424-261.472,206.115c-18.09-20.666-34.35-42.967-48.537-66.65  C153.874,1270.958,138.034,1280.803,428.208,1093.03z M464.658,1143.409l-16.889,41.055  c-197.319,221.856-186.426,209.186-186.957,211.048c-19.218-15.241-37.189-31.985-53.732-50.061  C208.415,1344.948,193.238,1356.685,464.658,1143.409z M553.939,1261.945c3.452-0.402,7.018,0.245,9.987,1.904  c5.192,5.785,8.644-1.437,18.324,1.065c10.625,238.735,9.895,225.801,10.411,227.148c-23.995,2.495-46.37,2.981-68.523,1.986  C524.464,1493.122,522.656,1506.688,553.939,1261.945z M592.189,1240.53l7.185,17.039c-3.684-0.91-5.347-2.508-6.558-2.946  L592.189,1240.53z M677.674,1279.279c4.469-2.008,9.87-1.887,14.158,0.275c6.015,6.133,10.83-3.904,21.914,1.48  c7.5,4.366,10.582-4.089,21.124,1.225c6.018,6.142,10.807-3.904,21.915,1.48c5.421,3.154,6.572,0.255,11.891-0.336  c79.951,103.99,75.485,98.298,76.247,98.961c-21.145,18.364-43.999,34.803-68.263,49.094  C776.316,1430.553,781.908,1439.271,677.674,1279.279z M785.078,1286.664c13.348-4.95,14.629,2.105,20.105,1.157  c1.485-0.177,7.941-4.124,15.677-0.229c6.045,6.166,11.608-4.185,22.262,1.663c6.126,4.422,10.033-4.2,20.646,1.151  c0.8,0.817,1.79,1.418,2.876,1.757c36.579,32.455,34.436,30.636,35.198,31.082c-14.914,18.525-31.216,35.887-48.785,51.887  C852.572,1374.423,858.221,1381.799,785.078,1286.664z M881.439,1290.568c4.904,0.831,7.886,4.672,12.457,1.556  c4.178-1.435,8.94-1.162,12.806,0.786c5.296,5.415,8.159-1.352,17.513,0.14c-5.005,7.375-10.238,14.582-15.653,21.642  C907.967,1314.073,911.41,1317.159,881.439,1290.568z M916.16,1282.757c-2.064-1.966-4.726-2.343-7.069-1.467  c-11.838,5.376-16.279-5.099-22.713-0.799c-1.492,0.916-7.342,2.462-13.155-0.241c-1.499-1.427-3.339-2.103-5.484-1.839  l-145.226-128.851c1.966,0.868,226.738,100.13,227.574,100.425c-5.812,10.985-12.041,21.717-18.697,32.152  C930.39,1282.381,924.147,1286.472,916.16,1282.757z M695.502,1125.595l-30.915-27.43c2.745,0.585,318.763,67.981,319.65,68.1  c-7.602,25.688-17.398,50.439-29.175,74.04C954.353,1239.813,966.782,1245.365,695.502,1125.595z M647.878,1083.341l-24.224-21.493  l369.894,67.393c-1.849,8.955-3.986,17.805-6.351,26.562C986.368,1155.435,1001.703,1158.772,647.878,1083.341z M957.435,1082.309  l-324.086-41.35l22.764-9.252c2.61,0.338,344.292,44.6,345.131,44.569c-0.332,3.84-0.711,7.666-1.138,11.478  C1000.002,1087.74,957.516,1082.243,957.435,1082.309z M676.839,1023.284l45.492-18.489l259.149-15.669  c2.071,0.923,3.818,0.854,5.774-0.094c1.664,0.479,3.321,0.408,4.792-0.092c2.656-1.096,6.319-0.515,8.362-1.092  c2.882,27.178,3.222,52.364,1.646,77.55C1001.218,1065.24,679.662,1023.649,676.839,1023.284z M804.24,644.6l10.537-16.568  c117.449,77.848,199.525,204.935,216.563,351.593c-10.792,3.963-14.814-2.206-19.982-1.85  C993.972,838.86,915.725,718.612,804.24,644.6z M1032.56,991.349c0.508,5.532,0.93,11.088,1.252,16.672  c-6.372,7.341-13.26,16.778-18.829,25.576c-0.088-14.521-0.831-28.89-2.214-43.074c0.757-0.043,1.753-0.257,2.1-0.377  C1023.749,986.471,1031.058,990.878,1032.56,991.349z M1012.996,1079.908c1.056,1.892,2.791,3.814,4.376,4.991  c0.768,1.778,0.765,3.475-0.36,5.012l-4.974-0.635C1012.388,1086.162,1012.707,1083.04,1012.996,1079.908z M1028.168,1030.541  l-0.406-0.138c0.76-1,2.4-3.246,6.694-7.701c0.027,0.956,0.045,1.914,0.066,2.871  C1030.228,1029.213,1031.68,1028.078,1028.168,1030.541z M837.805,472.15c-0.043-0.03-0.037-0.026-0.057-0.046L837.805,472.15z   M807.815,542.201v-0.151l22.467-36.456c0.12-0.529,0.249-1.069,0.335-1.607l-0.697-1.427c-1.61-1.794-1.187-1.364-1.957-2.068  l1.475-2.369c1.867,1.02,3.021,1.703,4.557,1.827l0.488-0.782c0.738,0.216,1.026,0.101,2.373-0.011  c0.047,0.008,0.329,0.06,0.375,0.067c0.075-0.025,0.358-0.128,0.436-0.136l0.203-0.08l-0.112-0.07l0.912-1.512l0.292-0.099  l-0.169-0.105l0.048-0.08l-0.833-2.069l-0.578-0.628c0.063-0.102,0.15-0.241,0.21-0.336l-3.778-5.417  c0.078-0.034,6.467-2.8,6.543-2.833c0.021-0.063,3.437-10.134,3.458-10.197l-0.101-0.265c-0.774-0.845-0.445-0.539-1.445-1.344  c4.084-5.205,22.208-28.927,23.862-42.151c10.23-81.799,39.41-83.62,39.655-83.629l0.811,0.002l17.638,57.687  c-50.882,81.534-28.402,45.522-100.239,160.572l-0.475-0.294c0.106-0.169,5.511-8.831,5.617-8.999l-2.518-1.576  c0.097-0.155,1.04-1.666,1.136-1.818l-3.645-2.268l0.065-0.103l-0.198,0.02l-0.064-0.04l-0.031,0.049  c-2.262,0.231-1.395,0.256-3.802-0.112c-2.726-1.204-2.544-1.135-4.637-2.894c-1.385-2.001-0.983-1.233-1.764-3.368l0.033-0.051  l-0.066-0.041l-0.068-0.185l-0.064,0.103l-4.17-2.6l0.084-0.135l-0.224,0.048l-0.058-0.036l-0.035,0.056l-1.038,0.223l-0.524,0.838  l-0.361-0.227C807.266,543.077,807.787,542.246,807.815,542.201z M804.715,548.475l0.028,0.018l-3.137,4.986L804.715,548.475z   M807.774,549.749l0.137-0.022l0.605-0.368l0.405-0.627l0.118-0.775l-0.259-0.717c-0.477-0.49-0.18-0.336-1.905-1.375l0.374-0.173  l3.067,1.913l-9.498,15.196l-0.863-0.543L807.774,549.749z M792.839,582.81c1.196-4.788,0.341-5.5,0.439-9.87l4.574-7.318  l2.022,1.261l-0.07,0.112l0.205-0.028l0.062,0.038l0.032-0.051l1.908-0.26l1.935,0.298c2.693,1.265,2.515,1.191,4.639,2.893  l1.116,1.61l0.606,1.832l-0.034,0.053l0.064,0.04l0.064,0.194l0.069-0.111l3.643,2.268l1.195-1.913l2.525,1.573  c0.638-1.022,1.093-1.751,5.615-8.997l0.475,0.294c-17.492,28.014-14.177,22.673-18.525,29.769  c-5.35-3.179-10.748-6.287-16.221-9.274C790.622,586.527,792.049,584.195,792.839,582.81z M774.75,625.798l1.491,0.119  c2.446-0.472,1.636-0.291,3.551-0.796c3.043-2.469,5.416-5.173,6.805-7.328l0.544-1.774l0.007-1.901l-0.74-2.208  c-1.964-2.311-1.257-1.611-3.107-3.078c3.609,2.019,7.19,4.083,10.742,6.19l-10.26,16.741c-7.904-4.682-15.944-9.159-24.135-13.383  C762.736,619.461,770.896,624.412,774.75,625.798z M737.642,621.008c4.784,2.228,9.532,4.521,14.225,6.908  c-0.87,1.029,4.076-10.044-84.012,193.005l-59.359,96.855c72.422-337.501,68.499-318.712,68.444-319.92  c15.808,4.766,31.271,10.338,46.313,16.719l0.268,0.831l1.232,1.73C730.998,621.6,734.303,621.527,737.642,621.008z   M544.945,1526.206c-270.031,0-489.716-219.687-489.716-489.716c0-340.987,341.615-578.126,660.641-458.916  c-2.774,1.057-5.233,2.179-7.661,8.808c-0.381,1.973-0.355,2.722,1.104,5.223c3.482,2.808,1.786,1.185,14.569,8.186l0.576,0.812  c0.149,0.533,0.342,1.139,0.4,1.628c-308.56-128.317-650.002,99.883-650.002,434.26c0,259.202,210.877,470.082,470.08,470.082  c164.053,0,308.72-84.493,392.844-212.226c3.947-1.098,8.299-0.734,11.883,1.072c3.923,4.006,8.211,1.094,10.448,0.496  C873.445,1434.114,719.76,1526.206,544.945,1526.206z M965.694,1286.801c-2.274-0.05-4.519-0.579-6.573-1.535  c-4.866-4.633-7.736,0.59-15.448-0.094c27.814-44.437,48.408-93.824,60.133-146.522c3.131,1.737,8.168,2.309,7.14,7.198  c-0.381,6.057-11.484,4.654-7.882,11.858c4.202,0.903,11.281,2.071,10.06,7.973c-1.043,4.443-12.205,7.962-4.573,11.911l0.033,0.015  c1-0.083,2.644-0.264,5.089,0.777C1002.048,1216.71,985.843,1253.06,965.694,1286.801z M1108.989,1296.5  c-5.728-4.847-10.453,3.614-20.8-2.014c-5.764-6.232-10.718,3.809-22.5-3.853c-5.906-4.067-10.044,4.508-20.785-0.279  c-6.223-5.737-10.976,4.635-22.612-2.009c-5.974-3.525-9.692,4.621-20.261-0.292c-4.125-3.926-7.843-0.656-11.836-0.157  c13.277-23.421,24.762-47.981,34.262-73.504c1.841,0.262,3.866,0.22,5.452-0.089c5.903,2.041,3.533,9.011-0.268,12.647  c-0.542,8.137,8.31,1.376,12.381,4.165c5.788,3.333-0.333,9.618-0.518,13.324c1.45,3.728,4.4,2.538,6.845,1.6  c2.351-0.903,4.776-1.832,6.833,0.101c6.24,3.74-3.259,10.75,1.583,14.143c3.813,3.003,9.708-5.773,13.78-0.098  c4.25,4.411-4.307,11.243,3.429,13.821c3.547-2.531,9.16-6.917,12.674-2.041c2.458,3.605-2.178,14.84,5.735,11.399  c2.904-4.148,10.274-6.402,12.241-0.36c-1.461,5.68,2.887,13.803,7.825,6.468c2.9-5.359,11.623-2.891,10.817,4.365  c0.022,0.645,0.085,1.217,0.183,1.729C1121.439,1295.889,1116.268,1299.514,1108.989,1296.5z M1129.18,1297.292  c1.823-1.217,3.626-3.176,4.676-4.889c3.593-1.951,6.506,0.085,8.096,3.839C1137.903,1298.011,1134.129,1299.058,1129.18,1297.292z   M1151.085,1297.565c2.466-3.423,6.278-4.3,8.735-0.972C1157.066,1297.744,1153.998,1298.076,1151.085,1297.565z M1096.262,1248.964  c-3.711-6.885-5.689-15.642-5.118-24.319l0.72-0.385l2.491-0.149l1.883,0.658l1.546,1.269l1.026,1.713l0.349,2.461  c-0.904,3.039-0.496,1.514-1.829,6.912c0.103,0.071,3.911,2.689,4.013,2.759c4.561-3.158,3.278-2.231,5.802-4.162l2.428-0.539  l1.968,0.349l1.725,0.995l1.292,1.534l0.742,2.375c-0.217,1.684-0.359,2.417-0.706,7.109c0.112,0.053,4.303,2.036,4.414,2.091  c3.996-3.864,2.88-2.741,5.05-5.047l2.321-0.924l2.001,0.033l1.864,0.709l1.514,1.302l1.114,2.229  c0.137,4.048,0.011,1.243,0.447,7.13c0.121,0.035,4.565,1.316,4.685,1.353c3.331-4.445,2.41-3.163,4.188-5.789l2.132-1.284  l1.978-0.295l1.959,0.402l1.692,1.046l1.464,2.017c0.468,2.408,0.348,2.026,1.582,6.963c0.125,0.015,4.715,0.582,4.84,0.596  c2.578-4.934,1.873-3.52,3.207-6.391l1.908-1.609l1.895-0.605l1.99,0.074l1.852,0.763l1.771,1.761  c1.291,3.503,0.422,1.257,2.672,6.614l4.874-0.188c1.755-5.27,1.29-3.769,2.139-6.826l1.621-1.886l1.777-0.912l0.963-0.112  C1166.229,1288.67,1112.711,1274.821,1096.262,1248.964z M1171.228,1297.116c1.548-2.187,5.428-3.019,7.506-0.854  C1176.338,1297.15,1173.743,1297.449,1171.228,1297.116z M1191.046,1295.015c1.477-2.039,4.427-1.834,5.733-1.342  C1194.968,1294.478,1193.016,1294.931,1191.046,1295.015z M1210.081,1291.296c1.504-1.964,4.011-2.368,5.906-1.397  C1214.124,1290.74,1212.111,1291.224,1210.081,1291.296z M1228.303,1285.62c1.227-1.874,2.988-2.871,5.184-2.454  C1231.92,1284.292,1230.16,1285.134,1228.303,1285.62z M1241.019,1258.251c-19.95,11.262-40.421,17.459-59.202,17.921  c-4.327-3.672,3.462-7.463,5.317-10.857c2.157-2.087,4.007-4.737,5.748-7.19l0.325,0.516c0.12-0.025,4.653-0.951,4.773-0.974  c0.886-5.482,0.675-3.995,0.984-6.789c2.112-1.844,4.582-3.191,7.691-3.591l1.397,0.688c1.091,1.367,1.46,1.913,4.634,5.44  c0.115-0.044,4.446-1.689,4.561-1.731c0-5.45,0.02-4.252-0.069-6c6.88,1.201,17.838,5.457,21.726,5.457  c3.058-0.5,5.117,1.183,5.507,3.012C1245.025,1257.027,1242.019,1257.806,1241.019,1258.251z M1245.571,1277.484  c1.315-1.943,3.586-2.891,5.808-2.702C1249.646,1276.072,1247.662,1276.999,1245.571,1277.484z M1261.84,1267.86  c0.792-2.339,2.408-3.374,4.729-3.414C1265.221,1265.873,1263.607,1267.03,1261.84,1267.86z M1277.077,1255.565  c0.817-2.575,2.479-3.625,4.766-3.508C1280.491,1253.521,1278.867,1254.715,1277.077,1255.565z M1290.236,1242.68  c0.093-1.501,1.562-4.643,4.442-4.764C1293.544,1239.796,1292.032,1241.437,1290.236,1242.68z M1295.384,1200.627  c-9.627,25.501-31.787,47.964-60.544,39.234c-0.353-2.15-0.178-1.238-0.811-4.215l0.553-2.428l1.163-1.627l1.642-1.135l1.925-0.495  l2.47,0.337c1.001,0.643,2.906,1.905,6.118,3.682c0.098-0.08,3.68-3.005,3.778-3.084c-1.757-5.273-1.226-3.79-2.385-6.727  l0.159-2.494l0.877-1.788l1.441-1.385l1.829-0.804l2.491-0.066c4.38,1.934,0.942,0.429,6.632,2.661  c0.083-0.094,3.146-3.551,3.23-3.644c-2.592-4.93-1.83-3.548-3.432-6.269l-0.244-2.482l0.583-1.904l1.196-1.6l1.673-1.09  l2.448-0.456c4.52,1.168,4.54,1.006,6.978,1.558l2.605-4.126c-3.344-4.44-2.372-3.202-4.392-5.625l-0.638-2.407l0.267-1.978  l0.921-1.77l1.481-1.344l2.343-0.846c2.204,0.196,2.061,0.232,7.13,0.42c0.048-0.112,1.863-4.379,1.911-4.49  c-4.004-3.85-2.843-2.782-5.242-4.856l-1.017-2.27l-0.054-1.996l0.636-1.898l1.236-1.555l2.185-1.21  c4.604-0.327,1.014-0.053,7.109-0.73l0.181-0.738C1297.885,1177.305,1299.662,1189.834,1295.384,1200.627z M1284.868,1083.991  c-5.541,0.236-3.974,0.139-7.13,0.42l-2.343-0.846l-1.481-1.344l-0.922-1.77l-0.265-1.969l0.638-2.416  c2.902-3.486,3.09-3.969,4.392-5.625l-2.605-4.126l-2.54,0.525l13.593-14.372c11.467,15.796,15.819,34.073,5.616,51.292  c-0.031-0.126-0.157-0.64-0.187-0.764c-5.512-0.661-3.942-0.507-7.109-0.721l-2.185-1.219l-1.236-1.555l-0.636-1.898l0.054-1.987  l1.017-2.279c1.619-1.402,1.654-1.36,5.242-4.856C1286.73,1088.364,1284.917,1084.107,1284.868,1083.991z M1302.098,1227.158  c-0.042-2.232,2.21-4.437,4.411-4.755C1305.382,1224.278,1303.887,1225.918,1302.098,1227.158z M1304.128,1168.039  c-1.455-2.804-3.107-5.523-4.812-8.187l10.966-0.284C1309.564,1163.547,1309.028,1171.725,1304.128,1168.039z M1314.635,1206.22  c-0.539,1.655-1.347,3.208-2.394,4.588C1312.107,1208.839,1313.015,1207.363,1314.635,1206.22z M1307.179,1101.733  c1.925,2.708,2.649,6.034,3.105,9.425l-10.912-0.283C1301.729,1107.025,1302.676,1101.373,1307.179,1101.733z M1302.339,1042.025  c1.908,2.923,1.813,4.541,2.206,5.606C1301.935,1045.694,1301.717,1043.834,1302.339,1042.025z M1751.096,484.18l0.644,0.778  c-151.584,160.272-81.295,86.39-308.185,323.804c1.952-2.396,2.598-3.516,3.279-4.609l-1.433-1.359  c0.125-0.132,4.535-4.797,4.659-4.93c-0.136-0.129-9.019-8.531-9.153-8.655c-0.125,0.132-19.138,20.24-19.262,20.373  c0.136,0.128,9.022,8.531,9.156,8.655l4.662-4.932l1.427,1.351c1.831-1.284,2.462-1.739,4.193-3.309l-63,65.922l0.807-1.292  l-1.434-1.361c0.125-0.132,4.537-4.799,4.661-4.932c-0.136-0.129-9.01-8.519-9.144-8.643c-0.125,0.132-19.135,20.231-19.259,20.364  c0.136,0.129,9.01,8.531,9.144,8.655l4.658-4.928c0.111,0.104,1.333,1.254,1.444,1.356l0.967-0.684  c-73.099,76.489-49.429,51.612-103.909,109.21c-8.101-4.416-5.891-11.282-12.715-10.698c-10.265,1.322-12.668-6.354-17.017-7.031  c-1.472-0.319-8.406,1.06-13.899-4.8c-0.636-0.788-1.26-1.392-1.892-1.865c-4.677-6.1-10.464,2.019-19.624-4.683  c-2.174-1.854-4.538-2.771-7.393-1.704c-11.993,4.952-15.711-6.719-22.161-0.541c-9.603,4.171-14.615-3.295-20.118,0.252  c-1.929,1.344-4.184,2.209-6.504,2.567l-3.752-12.273c0.099-1.003,0.226-1.579-0.17-2.971l-0.335-0.31l-0.508-0.033  c-5.845-19.118-3.34-11.013-11.806-38.182l2.123-1.077c0.044-0.049,0.798-0.905,0.84-0.956c0.001-0.032,0.056-1.347,0.058-1.379  l-2.482-8.265c-0.038-0.056-0.857-1.258-0.894-1.314l-1.222-0.319l-2.48,0.292c-148.854-477.731-116.319-372.672-163.289-526.306  l746.116-32.576l0.001,0.039c-0.182,0.029-0.369,0.061-0.55,0.089l0.083,0.53c0.159-0.025,0.323-0.053,0.482-0.078l0.012,0.425  l48.579-2.007c0.058,0.168,4.812,13.995,4.868,14.161l0.656-0.197l23.939,75.015c-0.181,0.046-1.026,0.262-1.207,0.31l4.663,15.71  C1788.309,444.961,1751.211,484.06,1751.096,484.18z M1795.98,279.642c0.168-0.055,1.095-0.358,1.263-0.413l-2.849-8.667l5.406-0.1  c-0.518,7.16-0.429,14.608,0.384,22.357L1795.98,279.642z M1792.587,265.063l-0.088-0.269c6.627-9.775,1.682-16.433-8.388-22.508  l-16.858-47.458l4.862-4.746l75.851-15.709c-0.981,2.144-1.884,4.388-2.696,6.75c-21.784,20.914-40.945,48.899-45.001,84.327  L1792.587,265.063z M1832.698,394.698c-19.486-61.061-32.485-88.652-29.826-124.233l36.528,12.705l6.426-1.469  c4.416,22.19,13.638,55.802,22.189,85.255c-15.452,2.644-31.739,4.962-38.925,5.86L1832.698,394.698z M2082.05,1523.12  c-270.029,0-489.716-219.687-489.716-489.716c0-185.686,103.883-347.565,256.582-430.576l7.922,18.006  c-145.839,79.901-244.953,234.87-244.953,412.564c0,259.205,210.88,470.085,470.082,470.085s470.082-210.88,470.082-470.085  c0-296.805-273.648-521.266-566.279-460.168c2.365-3.024,1.351-5.031-0.057-9.41c-4.925-10.93-16.946-3.44-33.409-0.627  l-1.111-1.724c311.778-86.557,620.574,149.245,620.574,471.935C2571.766,1303.433,2352.079,1523.12,2082.05,1523.12z"/>
</svg>